<?xml version="1.0" encoding="utf-8"?>
<!-- Generator: Adobe Illustrator 25.0.1, SVG Export Plug-In . SVG Version: 6.00 Build 0)  -->
<svg version="1.1" xmlns="http://www.w3.org/2000/svg" xmlns:xlink="http://www.w3.org/1999/xlink" x="0px" y="0px"
	 viewBox="0 0 512 512" style="enable-background:new 0 0 512 512;" xml:space="preserve">
<style type="text/css">
	.st0{fill:#999999;stroke:#333333;stroke-width:11;stroke-miterlimit:10;}
	.st1{display:none;}
	.st2{display:inline;fill:#333333;}
	.st3{display:inline;fill:#FFFFFF;stroke:#999999;stroke-width:2;stroke-miterlimit:10;}
	.st4{display:inline;fill:#999999;stroke:#333333;stroke-width:11;stroke-miterlimit:10;}
	.st5{display:inline;fill:#808080;}
	.st6{display:inline;fill:#FFFFFF;}
	.st7{display:inline;fill:#666666;}
	.st8{display:inline;fill:#FFFFFF;stroke:#000000;stroke-miterlimit:10;}
	.st9{display:inline;fill:#E6E6E6;}
	.st10{fill:#333333;stroke:#666666;stroke-miterlimit:10;}
	.st11{fill:#333333;stroke:#4D4D4D;stroke-miterlimit:10;}
	.st12{fill:#FFFFFF;stroke:#666666;stroke-miterlimit:10;}
	.st13{fill:#333333;}
	.st14{fill:#FFFFFF;}
	.st15{fill:#FFFFFF;stroke:#4D4D4D;stroke-miterlimit:10;}
	.st16{fill:#808080;}
	.st17{fill:#E6E6E6;}
	.st18{fill:#666666;}
</style>
<g id="Layer_2">
	<rect y="0" class="st0" width="516.57" height="516.57"/>
</g>
<g id="Layer_1" class="st1">
	<polygon class="st2" points="313.05,355.74 206.59,355.42 214.1,321.72 308.06,322.47 	"/>
	<path class="st3" d="M210.61,47.1L321.14,48l31.79,76.31l-44.88,199.53c0,0-34.65,8.93-47.5,8.8
		c-15.54-0.15-47.72-9.05-46.45-10.92l-43.62-197.8"/>
	
		<ellipse transform="matrix(8.063618e-03 -1 1 8.063618e-03 -125.0414 639.1072)" class="st2" cx="259.62" cy="382.58" rx="40.94" ry="85.34"/>
	<line class="st2" x1="214.1" y1="321.72" x2="208.06" y2="349.64"/>
	<path class="st2" d="M343.6,237.59c-2.37,16.2-9.17,47.35-12.18,60.9c-0.83,3.72,15.6,15.16,18.71,17.36
		c18.33,12.96,25.89,26.87,29.97,33.97c19.29,33.55,13.95,64.8,11.14,80.79c-2.99,17.04,29.13,0.69,39.48-42.79
		c3.83-16.09,5.08-23.36,4.35-34.4c-0.64-9.63-1.15-20.6-5.07-33.81c-6.34-21.34-13.12-38.4-32.91-59.74
		c-6.78-7.31-30.2-20.67-35.63-22.52C356.55,235.67,344.35,232.47,343.6,237.59z"/>
	<path class="st2" d="M178.85,236.26c2.16,16.23,8.59,47.49,11.45,61.09c0.78,3.73-16.17,14.9-19.39,17.05
		c-18.93,12.66-26.88,26.45-31.16,33.48c-20.25,33.24-15.3,64.56-12.69,80.6c2.77,17.08-29.76,0.21-39.62-43.43
		c-3.65-16.15-4.81-23.44-3.88-34.47c0.81-9.62,1.51-20.58,5.73-33.72c6.83-21.23,14.02-38.18,34.58-59.2
		c7.04-7.2,31.18-20.18,36.75-21.94C165.65,234.13,178.17,231.13,178.85,236.26z"/>
	
		<ellipse transform="matrix(8.063618e-03 -1 1 8.063618e-03 18.0268 499.4142)" class="st4" cx="260.74" cy="240.62" rx="57.71" ry="45.22"/>
	<circle class="st5" cx="261.21" cy="182.36" r="1.77"/>
	<circle class="st5" cx="260.28" cy="298.33" r="1.77"/>
	<circle class="st5" cx="305.96" cy="240.99" r="1.77"/>
	<circle class="st5" cx="215.53" cy="240.26" r="1.77"/>
	<circle class="st5" cx="225.23" cy="204.85" r="1.77"/>
	<circle class="st5" cx="296.21" cy="203.65" r="1.77"/>
	<circle class="st5" cx="293.83" cy="280.4" r="1.77"/>
	<circle class="st5" cx="226.39" cy="279.14" r="1.77"/>
	<polygon class="st6" points="187.75,384.89 185.42,383.15 185.75,380.27 188.42,379.12 190.75,380.85 190.41,383.74 	"/>
	<polygon class="st6" points="208.58,398.96 205.91,400.11 203.58,398.37 203.92,395.49 206.59,394.34 208.92,396.07 	"/>
	<polygon class="st6" points="232.01,409.42 229.36,408.39 228.93,405.57 231.15,403.8 233.8,404.83 234.23,407.65 	"/>
	<polygon class="st6" points="262.01,413.25 260.52,415.46 257.86,415.27 256.69,412.88 258.18,410.67 260.84,410.85 	"/>
	<polygon class="st6" points="288.08,412.13 285.43,411.52 284.63,408.92 286.48,406.92 289.14,407.53 289.94,410.14 	"/>
	<polygon class="st6" points="313.1,405.19 310.45,404.16 310.02,401.35 312.24,399.57 314.89,400.6 315.32,403.42 	"/>
	<polygon class="st6" points="324.89,390 322.23,390.02 320.88,387.73 322.19,385.42 324.85,385.39 326.2,387.68 	"/>
	<polygon class="st6" points="292.72,394.39 290.05,395.9 287.41,394.35 287.43,391.28 290.1,389.76 292.75,391.32 	"/>
	<polygon class="st6" points="226.85,391.78 225.97,394.35 223.31,394.87 221.52,392.82 222.4,390.26 225.06,389.73 	"/>
	<polygon class="st6" points="256.23,397.71 254.45,395.67 255.33,393.1 257.99,392.57 259.77,394.62 258.9,397.19 	"/>
	<path class="st7" d="M306.72,331.93c-0.03,3.62-21.81,8.92-46.78,8.72c-24.97-0.2-45.16-6.86-45.14-10.49
		c0.03-3.62,19.3,4.67,44.28,4.87C284.05,335.23,306.75,328.3,306.72,331.93z"/>
	<path class="st7" d="M309.53,343.01c-0.03,3.62-23.28,8.91-49.93,8.69c-26.66-0.21-48.21-6.89-48.19-10.51
		c0.03-3.62,20.61,4.68,47.26,4.89C285.33,346.29,309.56,339.38,309.53,343.01z"/>
	<polygon class="st8" points="194.85,423 191.39,426.4 191.35,431.25 194.76,434.71 199.61,434.75 203.06,431.35 203.1,426.5 
		199.7,423.04 	"/>
	<polygon class="st8" points="219.45,448.08 214.92,449.81 212.95,454.24 214.69,458.77 219.12,460.75 223.65,459.01 225.62,454.58 
		223.88,450.05 	"/>
	<polygon class="st8" points="242.24,434.9 239.66,430.79 234.94,429.7 230.83,432.28 229.74,437.01 232.32,441.12 237.04,442.2 
		241.15,439.62 	"/>
	<polygon class="st8" points="283.35,472.3 278.5,472.26 275.04,475.67 275,480.52 278.4,483.97 283.25,484.01 286.71,480.61 
		286.75,475.76 	"/>
	<polygon class="st8" points="286.35,429.54 281.5,429.5 278.04,432.9 278.01,437.75 281.41,441.21 286.26,441.25 289.71,437.85 
		289.75,433 	"/>
	<polygon class="st8" points="261.48,449.7 256.63,449.66 253.17,453.06 253.14,457.91 256.54,461.37 261.39,461.41 264.84,458 
		264.88,453.15 	"/>
	<polygon class="st8" points="317.18,421.24 312.33,421.2 308.87,424.6 308.83,429.45 312.23,432.91 317.08,432.95 320.54,429.55 
		320.58,424.7 	"/>
	<polygon class="st8" points="243.98,471.99 239.13,471.95 235.67,475.35 235.63,480.2 239.04,483.66 243.89,483.69 247.34,480.29 
		247.38,475.44 	"/>
	<polygon class="st8" points="302.55,444.17 297.7,444.13 294.24,447.54 294.21,452.39 297.61,455.84 302.46,455.88 305.91,452.48 
		305.95,447.63 	"/>
	<path class="st9" d="M293.91,266.78c0.58,7.49-9.54,19.51-18.35,23.02c-3.53,1.4-11.92,5.2-28.43,1.01
		c-2.89-0.73,8.24,0.44,23.88-5.72C291.93,276.83,293.68,263.89,293.91,266.78z"/>
	<path class="st9" d="M306.44,63.64l-90.52-0.73c-1.5-0.01-2.71-1.24-2.69-2.74v0c0.01-1.5,1.24-2.71,2.74-2.69l90.52,0.73
		c1.5,0.01,2.71,1.24,2.69,2.74v0C309.16,62.44,307.94,63.65,306.44,63.64z"/>
	<path class="st9" d="M218.29,61.38l-32.26,66.32c-0.66,1.35-2.28,1.91-3.63,1.25v0c-1.35-0.66-1.91-2.28-1.25-3.63L213.4,59
		c0.66-1.35,2.28-1.91,3.63-1.25h0C218.38,58.41,218.95,60.03,218.29,61.38z"/>
</g>
<g id="Layer_3">
	<polyline class="st10" points="346.03,198.94 407.17,268.97 409.14,360.55 323.51,298.92 	"/>
	<polyline class="st11" points="183.26,197.88 122.12,267.91 120.14,359.48 205.78,297.86 	"/>
	<polygon class="st12" points="327.92,39.9 205.24,39.9 164.79,63.56 188.02,278.82 211.27,306.63 315.62,306.63 343.23,278.12 
		367.04,63.56 	"/>
	<ellipse class="st13" cx="262.48" cy="343.82" rx="68.11" ry="23.04"/>
	<polygon class="st10" points="318.43,321.26 207.6,321.26 211.71,306.63 315.25,306.63 	"/>
	<polygon class="st12" points="329.82,340.6 195.13,340.6 207.24,320.78 318.94,320.78 	"/>
	<polygon class="st14" points="205.75,348.49 204.13,350.11 204.85,352.21 207.19,352.69 208.82,351.06 208.09,348.96 	"/>
	<polygon class="st14" points="223.52,356.27 221.9,357.89 222.63,359.99 224.97,360.47 226.59,358.84 225.87,356.74 	"/>
	<polygon class="st14" points="250.41,359.71 248.79,361.34 249.52,363.44 251.86,363.92 253.48,362.29 252.76,360.19 	"/>
	<polygon class="st14" points="282.74,358.37 281.12,359.99 281.85,362.1 284.19,362.57 285.81,360.95 285.09,358.84 	"/>
	<polygon class="st14" points="265.74,359.71 264.12,361.34 264.84,363.44 267.18,363.92 268.8,362.29 268.08,360.19 	"/>
	<polygon class="st14" points="238.31,351.7 236.69,353.32 237.41,355.42 239.76,355.9 241.38,354.27 240.65,352.17 	"/>
	<polygon class="st14" points="286.57,349.1 284.95,350.72 285.68,352.82 288.02,353.3 289.64,351.67 288.92,349.57 	"/>
	<polygon class="st14" points="259.41,347.62 257.79,349.25 258.51,351.35 260.85,351.82 262.48,350.2 261.75,348.1 	"/>
	<polygon class="st14" points="220.41,345.52 218.79,347.15 219.51,349.25 221.86,349.72 223.48,348.1 222.76,346 	"/>
	<polygon class="st14" points="305.68,343.13 304.06,344.76 304.79,346.86 307.13,347.33 308.75,345.71 308.03,343.61 	"/>
	<polygon class="st14" points="320.34,346.51 318.71,348.14 319.44,350.24 321.78,350.71 323.4,349.09 322.68,346.99 	"/>
	<polygon class="st14" points="302.46,354.2 300.84,355.82 301.56,357.92 303.91,358.4 305.53,356.77 304.8,354.67 	"/>
	<polygon class="st15" points="218.33,369.95 215.33,369.95 213.83,372.34 215.33,374.72 218.33,374.72 219.83,372.34 	"/>
	<polygon class="st15" points="200.38,383.34 203.18,384.34 205.52,382.62 205.07,379.9 202.28,378.9 199.93,380.61 	"/>
	<polygon class="st15" points="247.03,376.78 249.82,377.78 252.17,376.06 251.72,373.34 248.92,372.34 246.58,374.06 	"/>
	<polygon class="st15" points="287.38,376.78 290.17,377.78 292.52,376.06 292.07,373.34 289.27,372.34 286.93,374.06 	"/>
	<polygon class="st15" points="224.56,391.31 227.35,392.31 229.69,390.6 229.24,387.87 226.45,386.87 224.11,388.59 	"/>
	<polygon class="st15" points="251.52,390.65 254.32,391.66 256.66,389.94 256.21,387.22 253.42,386.21 251.07,387.93 	"/>
	<polygon class="st15" points="243.57,405.87 246.52,405.37 247.52,402.78 245.57,400.68 242.62,401.18 241.62,403.78 	"/>
	<polygon class="st15" points="279.73,393.41 282.68,392.9 283.68,390.31 281.74,388.21 278.78,388.72 277.78,391.31 	"/>
	<polygon class="st15" points="294.01,409.85 296.96,409.35 297.96,406.76 296.01,404.66 293.06,405.16 292.06,407.76 	"/>
	<polygon class="st15" points="278.38,409.85 281.33,409.35 282.33,406.76 280.38,404.66 277.43,405.16 276.43,407.76 	"/>
	<polygon class="st15" points="261.9,413.45 263.74,415.62 266.71,415.25 267.85,412.7 266.01,410.52 263.03,410.9 	"/>
	<polygon class="st15" points="239.43,427.79 241.27,429.96 244.24,429.59 245.37,427.04 243.53,424.86 240.56,425.24 	"/>
	<polygon class="st15" points="284.57,426.85 286.41,429.03 289.38,428.65 290.51,426.1 288.67,423.93 285.7,424.3 	"/>
	<polygon class="st15" points="259.44,436.98 261.28,439.15 264.25,438.78 265.38,436.23 263.54,434.05 260.57,434.43 	"/>
	<polygon class="st15" points="244.38,455.49 246.22,457.66 249.19,457.29 250.32,454.74 248.48,452.56 245.51,452.94 	"/>
	<polygon class="st15" points="274.79,446.77 276.63,448.94 279.6,448.57 280.73,446.02 278.89,443.84 275.92,444.22 	"/>
	<polygon class="st15" points="263.76,462.7 265.6,464.88 268.57,464.5 269.7,461.95 267.86,459.78 264.89,460.15 	"/>
	<polygon class="st15" points="314.44,374.72 317.39,374.22 318.39,371.62 316.44,369.53 313.49,370.03 312.49,372.63 	"/>
	<polygon class="st15" points="311.49,395.04 314.44,394.54 315.44,391.94 313.49,389.85 310.54,390.35 309.54,392.95 	"/>
	<polygon class="st15" points="329.03,385.97 331.98,385.47 332.98,382.87 331.03,380.78 328.08,381.28 327.08,383.88 	"/>
	
		<ellipse transform="matrix(0.0114 -0.9999 0.9999 0.0114 43.699 479.7224)" class="st0" cx="264.46" cy="217.76" rx="50.8" ry="41.06"/>
	
		<ellipse transform="matrix(0.9999 -0.0143 0.0143 0.9999 -2.3461 3.7931)" class="st16" cx="264.91" cy="166.48" rx="1.6" ry="1.55"/>
	
		<ellipse transform="matrix(0.9999 -0.0143 0.0143 0.9999 -3.8014 3.7906)" class="st16" cx="264.01" cy="268.56" rx="1.6" ry="1.55"/>
	
		<ellipse transform="matrix(0.9999 -0.0143 0.0143 0.9999 -3.0773 4.3771)" class="st16" cx="305.52" cy="218.07" rx="1.6" ry="1.55"/>
	
		<ellipse transform="matrix(0.9999 -0.0143 0.0143 0.9999 -3.077 3.2065)" class="st16" cx="223.4" cy="217.46" rx="1.6" ry="1.55"/>
	
		<ellipse transform="matrix(0.9999 -0.0143 0.0143 0.9999 -2.6317 3.3291)" class="st16" cx="232.22" cy="186.28" rx="1.6" ry="1.55"/>
	
		<ellipse transform="matrix(0.9999 -0.0143 0.0143 0.9999 -2.6098 4.2479)" class="st16" cx="296.68" cy="185.21" rx="1.6" ry="1.55"/>
	
		<ellipse transform="matrix(0.9999 -0.0143 0.0143 0.9999 -3.5732 4.2234)" class="st16" cx="294.49" cy="252.77" rx="1.6" ry="1.55"/>
	
		<ellipse transform="matrix(0.9999 -0.0143 0.0143 0.9999 -3.5638 3.3504)" class="st16" cx="233.25" cy="251.68" rx="1.6" ry="1.55"/>
	<path class="st17" d="M296.97,231.73c0.52,9.07-8.95,23.66-17.18,27.93c-3.3,1.71-11.13,6.33-26.51,1.3
		c-2.69-0.88,7.68,0.51,22.28-7C295.09,243.9,296.77,228.22,296.97,231.73z"/>
	<path class="st18" d="M324.77,46.42H207.06c-0.72,0-1.3-0.58-1.3-1.3l0,0c0-0.72,0.58-1.3,1.3-1.3h117.72c0.72,0,1.3,0.58,1.3,1.3
		v0C326.07,45.84,325.49,46.42,324.77,46.42z"/>
	<path class="st18" d="M336.45,273.08l22.73-204.78c0.11-0.96,0.97-1.65,1.92-1.54v0c0.96,0.11,1.65,0.97,1.54,1.92l-22.73,204.78
		c-0.11,0.96-0.97,1.65-1.92,1.54l0,0C337.03,274.9,336.34,274.04,336.45,273.08z"/>
	<path class="st18" d="M195.08,274.28L172.35,69.5c-0.11-0.96-0.97-1.65-1.92-1.54l0,0c-0.96,0.11-1.65,0.97-1.54,1.92l22.73,204.78
		c0.11,0.96,0.97,1.65,1.92,1.54l0,0C194.49,276.1,195.18,275.23,195.08,274.28z"/>
	<path class="st18" d="M178.04,212.42l-48.5,53.86c-0.29,0.32-0.77,0.34-1.09,0.06l0,0c-0.32-0.29-0.34-0.77-0.06-1.09l48.5-53.86
		c0.29-0.32,0.77-0.34,1.09-0.06l0,0C178.3,211.62,178.32,212.1,178.04,212.42z"/>
	<path class="st18" d="M353.64,215.29l48.5,53.86c0.29,0.32,0.77,0.34,1.09,0.06l0,0c0.32-0.29,0.34-0.77,0.06-1.09l-48.5-53.86
		c-0.29-0.32-0.77-0.34-1.09-0.06l0,0C353.38,214.48,353.36,214.97,353.64,215.29z"/>
</g>
</svg>
