<?xml version="1.0" encoding="utf-8"?>
<!-- Generator: Adobe Illustrator 25.0.1, SVG Export Plug-In . SVG Version: 6.00 Build 0)  -->
<svg version="1.1" xmlns="http://www.w3.org/2000/svg" xmlns:xlink="http://www.w3.org/1999/xlink" x="0px" y="0px"
	 viewBox="0 0 1920 1080" style="enable-background:new 0 0 1920 1080;" xml:space="preserve">
<style type="text/css">
	.st0{fill:#808080;}
	.st1{fill:#F2F2F2;stroke:#808080;stroke-miterlimit:10;}
	.st2{fill:#999999;stroke:#808080;stroke-miterlimit:10;}
	.st3{fill:#F2F2F2;stroke:#666666;stroke-miterlimit:10;}
	.st4{fill:#B3B3B3;stroke:#808080;stroke-miterlimit:10;}
	.st5{fill:#FFFFFF;stroke:#808080;stroke-miterlimit:10;}
	.st6{fill:#FFFFFF;stroke:#666666;stroke-miterlimit:10;}
	.st7{fill:#999999;stroke:#666666;stroke-miterlimit:10;}
	.st8{display:none;}
	.st9{display:inline;}
	.st10{fill:#FFFFFF;stroke:#666666;stroke-width:3;stroke-miterlimit:10;}
	.st11{font-family:'Yukarimobile';}
	.st12{font-size:352px;}
	.st13{fill:#333333;stroke:#666666;stroke-width:3;stroke-miterlimit:10;}
	.st14{display:none;opacity:0.21;}
	.st15{display:inline;fill:#333333;}
	.st16{display:inline;fill:#FFFFFF;stroke:#999999;stroke-width:2;stroke-miterlimit:10;}
	.st17{display:inline;fill:#999999;stroke:#333333;stroke-width:11;stroke-miterlimit:10;}
	.st18{fill:#FFFFFF;}
	.st19{display:inline;fill:#666666;}
	.st20{fill:#FFFFFF;stroke:#000000;stroke-miterlimit:10;}
	.st21{display:inline;fill:#E6E6E6;}
	.st22{fill:#333333;stroke:#4D4D4D;stroke-miterlimit:10;}
	.st23{fill:#333333;}
	.st24{fill:#FFFFFF;stroke:#4D4D4D;stroke-miterlimit:10;}
	.st25{fill:#999999;stroke:#333333;stroke-width:11;stroke-miterlimit:10;}
	.st26{fill:#E6E6E6;}
	.st27{fill:#666666;}
</style>
<g id="Layer_6">
	<rect class="st0" width="1920" height="1080"/>
</g>
<g id="background">
	<polygon class="st1" points="1263.92,767.28 1200.95,767.28 1146.42,797.7 1114.93,850.38 1114.93,911.22 1146.42,963.9 
		1200.95,994.32 1263.92,994.32 1318.46,963.9 1349.95,911.22 1349.95,850.38 1318.46,797.7 	"/>
	<polygon class="st2" points="1260.12,783.1 1205.58,783.1 1158.35,809.44 1131.08,855.07 1131.08,907.75 1158.35,953.38 
		1205.58,979.72 1260.12,979.72 1307.34,953.38 1334.61,907.75 1334.61,855.07 1307.34,809.44 	"/>
	<polygon class="st1" points="1256.46,799.93 1209.23,799.93 1168.33,821.76 1144.72,859.58 1144.72,903.24 1168.33,941.06 
		1209.23,962.89 1256.46,962.89 1297.36,941.06 1320.98,903.24 1320.98,859.58 1297.36,821.76 	"/>
	<polygon class="st3" points="246.57,549.61 195.73,549.61 151.7,575.42 126.28,620.12 126.28,671.73 151.7,716.43 195.73,742.24 
		246.57,742.24 290.6,716.43 316.02,671.73 316.02,620.12 290.6,575.42 	"/>
	<polygon class="st4" points="243.17,562.52 199.13,562.52 161,584.87 138.99,623.58 138.99,668.28 161,706.99 199.13,729.34 
		243.17,729.34 281.3,706.99 303.31,668.28 303.31,623.58 281.3,584.87 	"/>
	<polygon class="st5" points="238.74,578.5 203.56,578.5 173.09,596.57 155.5,627.86 155.5,663.99 173.09,695.29 203.56,713.35 
		238.74,713.35 269.21,695.29 286.8,663.99 286.8,627.86 269.21,596.57 	"/>
	<polygon class="st1" points="646.22,716.25 581.09,716.25 524.68,748.9 492.12,805.45 492.12,870.75 524.68,927.3 581.09,959.94 
		646.22,959.94 702.62,927.3 735.18,870.75 735.18,805.45 702.62,748.9 	"/>
	<polygon class="st3" points="266.33,171.22 229.95,171.22 198.45,188.19 180.26,217.57 180.26,251.51 198.45,280.89 229.95,297.86 
		266.33,297.86 297.83,280.89 316.02,251.51 316.02,217.57 297.83,188.19 	"/>
	<polygon class="st6" points="1507.96,143.1 1471.59,143.1 1440.08,160.07 1421.89,189.45 1421.89,223.39 1440.08,252.77 
		1471.59,269.74 1507.96,269.74 1539.47,252.77 1557.66,223.39 1557.66,189.45 1539.47,160.07 	"/>
	<polygon class="st3" points="987.99,403.45 934.66,475.01 851.88,510.67 761.84,500.88 688.67,448.26 651.96,366.91 661.56,278.63 
		714.89,207.08 797.67,171.41 887.71,181.21 960.88,233.83 997.59,315.17 	"/>
	<polygon class="st7" points="955.86,390.85 913.09,447.77 846.66,476.1 774.37,468.24 715.58,426.3 686.05,361.51 693.69,291.24 
		736.46,234.31 802.89,205.99 875.18,213.85 933.97,255.79 963.5,320.58 	"/>
	<polygon class="st1" points="927.54,380.76 893.87,426.54 841.68,449.41 784.97,443.24 738.92,409.69 715.87,357.75 722.01,301.32 
		755.68,255.55 807.87,232.68 864.58,238.84 910.63,272.4 933.68,324.34 	"/>
</g>
<g id="Layer_1" class="st8">
	<text transform="matrix(1 0 0 1 189.5772 537.5314)" class="st9"><tspan x="0" y="0" class="st10 st11 st12">SALT</tspan><tspan x="0" y="290" class="st13 st11 st12">ROCKET</tspan></text>
</g>
<g id="Rocket" class="st14">
	<polygon class="st15" points="1644.75,518.38 1535.23,685.94 1489.77,639.57 1587.19,492.18 	"/>
	<path class="st16" d="M1053.16,363.86l114.59-173.38l152.89,28.01l268.68,275.1c0,0-21.4,63.77-34.76,83.92
		c-16.15,24.36-63.15,65.98-64.79,62.07l-356.58-133.76"/>
	
		<ellipse transform="matrix(0.5514 -0.8343 0.8343 0.5514 206.629 1644.4857)" class="st15" cx="1632.37" cy="630.12" rx="160.47" ry="76.98"/>
	<line class="st15" x1="1489.77" y1="639.57" x2="1527.62" y2="677.69"/>
	<path class="st15" d="M1489.73,349.21c23.11,20.32,65.28,62.94,83.56,81.58c5.01,5.11,39.88-9.07,46.53-11.72
		c39.2-15.63,68.89-13.31,84.26-12.48c72.67,3.94,116.46,44.37,138.8,65.16c23.81,22.16,30.92-45.23-27.05-106.07
		c-21.46-22.52-31.63-31.93-49.8-42.08c-15.85-8.86-33.67-19.29-58.51-26.62c-40.15-11.85-73.99-18.64-127.91-9.29
		c-18.47,3.2-63.52,26.45-72,33.12C1499.96,326.82,1482.42,342.79,1489.73,349.21z"/>
	<path class="st15" d="M1318.92,607.64c27.81,13.22,83.69,35.09,108.06,44.5c6.69,2.58,6.94,40.77,7.03,48.03
		c0.57,42.81,14.18,69.47,20.88,83.43c31.68,65.96,86.14,90.24,114.09,102.55c29.78,13.12-30.14,47.15-109.05,18
		c-29.21-10.79-41.88-16.42-58.32-29.18c-14.34-11.13-30.91-23.46-47.31-43.57c-26.49-32.51-45.85-61.21-57.94-115.16
		c-4.14-18.48,0.11-69.82,3.04-80.42C1302.05,626.27,1310.14,603.46,1318.92,607.64z"/>
	
		<ellipse transform="matrix(0.5514 -0.8343 0.8343 0.5514 229.4737 1392.6796)" class="st17" cx="1409.66" cy="482.97" rx="85.02" ry="108.51"/>
	<g id="circles" class="st9">
		<circle class="st0" cx="1318.27" cy="422.58" r="3.32"/>
		<circle class="st0" cx="1500.18" cy="542.8" r="3.32"/>
		<circle class="st0" cx="1456.54" cy="412.04" r="3.32"/>
		<circle class="st0" cx="1362.78" cy="553.9" r="3.32"/>
		<circle class="st0" cx="1316.88" cy="502.34" r="3.32"/>
		<circle class="st0" cx="1387.69" cy="389.19" r="3.32"/>
		<circle class="st0" cx="1506.27" cy="471.54" r="3.32"/>
		<circle class="st0" cx="1435.22" cy="576.58" r="3.32"/>
	</g>
	<g id="whites" class="st9">
		<polygon class="st18" points="1562.4,745.82 1557.28,747.72 1553.08,744.23 1554,738.84 1559.12,736.95 1563.32,740.44 		"/>
		<polygon class="st18" points="1605.92,727.38 1605.01,732.77 1599.88,734.66 1595.68,731.17 1596.6,725.79 1601.72,723.89 		"/>
		<polygon class="st18" points="1646.42,701.15 1642.07,704.27 1637.2,702.06 1636.67,696.74 1641.02,693.62 1645.89,695.82 		"/>
		<polygon class="st18" points="1683.17,657.76 1685.13,662.36 1682.12,666.37 1677.15,665.76 1675.19,661.15 1678.2,657.15 		"/>
		<polygon class="st18" points="1708.11,615.5 1704.43,619.06 1699.51,617.65 1698.26,612.69 1701.94,609.12 1706.87,610.53 		"/>
		<polygon class="st18" points="1722.79,568.95 1718.44,572.07 1713.57,569.86 1713.04,564.54 1717.39,561.42 1722.26,563.62 		"/>
		<polygon class="st18" points="1710.91,534.79 1708.22,539 1703.22,538.79 1700.91,534.35 1703.6,530.13 1708.6,530.35 		"/>
		<polygon class="st18" points="1684.89,590.01 1684.54,595.77 1679.37,598.35 1674.56,595.17 1674.91,589.41 1680.07,586.83 		"/>
		<polygon class="st18" points="1613.31,691.21 1616.46,695.23 1614.56,699.97 1609.51,700.69 1606.36,696.67 1608.26,691.93 		"/>
		<polygon class="st18" points="1652.76,650.95 1647.7,651.67 1644.55,647.66 1646.46,642.92 1651.51,642.2 1654.66,646.22 		"/>
	</g>
	<path class="st19" d="M1600.72,503.98c5.69,3.76-8.27,43.53-34.16,82.7s-57.07,64.19-62.76,60.43
		c-5.69-3.76,27.13-25.66,53.02-64.83S1595.04,500.22,1600.72,503.98z"/>
	<path class="st19" d="M1621.07,510.89c5.69,3.76-9.79,45.83-37.43,87.64s-60.24,68.98-65.92,65.22
		c-5.69-3.76,28.48-27.71,56.12-69.52C1601.47,552.42,1615.38,507.13,1621.07,510.89z"/>
	<g id="salt" class="st9">
		<polygon class="st20" points="1629.78,773.65 1631.6,782.58 1639.21,787.61 1648.14,785.79 1653.17,778.18 1651.35,769.24 
			1643.74,764.21 1634.8,766.04 		"/>
		<polygon class="st20" points="1694.51,760.53 1692.62,769.45 1697.58,777.1 1706.5,779 1714.15,774.03 1716.05,765.11 
			1711.08,757.46 1702.16,755.56 		"/>
		<polygon class="st20" points="1697.07,711.1 1687.95,710.95 1681.4,717.3 1681.25,726.42 1687.59,732.97 1696.71,733.12 
			1703.26,726.77 1703.41,717.65 		"/>
		<polygon class="st20" points="1798.15,684.58 1793.12,692.19 1794.94,701.13 1802.55,706.16 1811.49,704.33 1816.52,696.72 
			1814.69,687.79 1807.08,682.76 		"/>
		<polygon class="st20" points="1733.79,636.05 1728.76,643.66 1730.58,652.6 1738.19,657.62 1747.13,655.8 1752.16,648.19 
			1750.33,639.26 1742.72,634.23 		"/>
		<polygon class="st20" points="1740.11,695.91 1735.08,703.52 1736.91,712.46 1744.51,717.49 1753.45,715.66 1758.48,708.05 
			1756.65,699.12 1749.05,694.09 		"/>
		<polygon class="st20" points="1752.27,578.95 1747.24,586.55 1749.06,595.49 1756.67,600.52 1765.61,598.69 1770.64,591.09 
			1768.81,582.15 1761.2,577.12 		"/>
		<polygon class="st20" points="1757.33,746.34 1752.3,753.94 1754.13,762.88 1761.74,767.91 1770.67,766.08 1775.7,758.48 
			1773.88,749.54 1766.27,744.51 		"/>
		<polygon class="st20" points="1773.46,625.49 1768.43,633.1 1770.25,642.04 1777.86,647.07 1786.8,645.24 1791.83,637.63 
			1790,628.7 1782.39,623.67 		"/>
	</g>
	<path class="st21" d="M1484.88,457.47c12.4,6.75,21.01,35.02,17.51,52.51c-1.4,7.01-4.01,24.13-27.53,45.87
		c-4.12,3.81,9.14-12.54,15.43-43.52C1498.7,470.87,1480.08,454.86,1484.88,457.47z"/>
	<path class="st21" d="M1177.37,229.67l-93.85,142c-1.55,2.35-4.72,3-7.08,1.44l0,0c-2.35-1.55-3-4.72-1.44-7.08l93.85-142
		c1.56-2.35,4.72-3,7.08-1.44l0,0C1178.27,224.15,1178.92,227.32,1177.37,229.67z"/>
	<path class="st21" d="M1083.54,366.37l71.54,118.79c1.45,2.42,0.68,5.55-1.74,7.01l0,0c-2.42,1.45-5.55,0.68-7.01-1.74
		l-71.54-118.79c-1.45-2.42-0.68-5.55,1.74-7.01l0,0C1078.94,363.17,1082.08,363.95,1083.54,366.37z"/>
</g>
<g id="Layer_8">
	<polyline class="st22" points="1711.84,428.09 1834.42,563.49 1841.54,743.31 1671.13,625.29 	"/>
	<polyline class="st22" points="1392.04,431.76 1274.42,571.49 1273.78,751.45 1439.82,627.37 	"/>
	<polygon class="st6" points="1670.64,116.29 1429.64,120.63 1351.01,168.55 1404.26,590.58 1450.92,644.39 1655.92,640.7 
		1709.14,583.72 1748.33,161.39 	"/>
	
		<ellipse transform="matrix(0.9998 -0.018 0.018 0.9998 -12.6294 28.0654)" class="st23" cx="1552.82" cy="715.65" rx="133.82" ry="45.28"/>
	<polygon class="st22" points="1661.95,669.34 1444.24,673.26 1451.78,644.38 1655.18,640.72 	"/>
	<polygon class="st24" points="1685,706.94 1420.42,711.71 1443.5,672.33 1662.93,668.38 	"/>
	<polygon class="st18" points="1441.55,726.82 1438.43,730.07 1439.92,734.17 1444.54,735.02 1447.67,731.77 1446.17,727.67 	"/>
	<polygon class="st18" points="1476.74,741.48 1473.62,744.73 1475.11,748.83 1479.73,749.68 1482.86,746.43 1481.36,742.33 	"/>
	<polygon class="st18" points="1529.69,747.29 1526.56,750.54 1528.06,754.64 1532.68,755.49 1535.81,752.24 1534.31,748.14 	"/>
	<polygon class="st18" points="1593.15,743.51 1590.03,746.76 1591.52,750.86 1596.15,751.71 1599.27,748.46 1597.78,744.36 	"/>
	<polygon class="st18" points="1559.79,746.75 1556.66,750 1558.16,754.1 1562.78,754.95 1565.91,751.7 1564.41,747.6 	"/>
	<polygon class="st18" points="1505.63,731.97 1502.5,735.22 1504,739.33 1508.62,740.18 1511.75,736.93 1510.25,732.83 	"/>
	<polygon class="st18" points="1600.35,725.16 1597.23,728.41 1598.72,732.51 1603.34,733.36 1606.47,730.11 1604.97,726.01 	"/>
	<polygon class="st18" points="1546.93,723.22 1543.81,726.47 1545.3,730.57 1549.92,731.42 1553.05,728.17 1551.55,724.07 	"/>
	<polygon class="st18" points="1470.25,720.47 1467.13,723.72 1468.62,727.82 1473.24,728.67 1476.37,725.42 1474.87,721.32 	"/>
	<polygon class="st18" points="1637.68,712.76 1634.55,716.01 1636.05,720.11 1640.67,720.96 1643.79,717.71 1642.3,713.61 	"/>
	<polygon class="st18" points="1666.58,718.88 1663.45,722.13 1664.95,726.23 1669.57,727.08 1672.7,723.83 1671.2,719.73 	"/>
	<polygon class="st18" points="1631.74,734.62 1628.61,737.87 1630.11,741.97 1634.73,742.82 1637.85,739.57 1636.36,735.47 	"/>
	<polygon class="st24" points="1467.02,768.54 1461.13,768.65 1458.26,773.38 1461.29,778.02 1467.19,777.91 1470.05,773.17 	"/>
	<polygon class="st24" points="1432.25,795.47 1437.77,797.34 1442.32,793.88 1441.34,788.55 1435.81,786.68 1431.27,790.13 	"/>
	<polygon class="st24" points="1523.65,780.93 1529.17,782.81 1533.72,779.35 1532.74,774.02 1527.21,772.14 1522.67,775.6 	"/>
	<polygon class="st24" points="1602.91,779.51 1608.43,781.38 1612.98,777.92 1612,772.59 1606.48,770.72 1601.93,774.18 	"/>
	<polygon class="st24" points="1480.01,810.27 1485.54,812.15 1490.08,808.69 1489.1,803.36 1483.58,801.48 1479.03,804.94 	"/>
	<polygon class="st24" points="1532.97,808.03 1538.49,809.9 1543.04,806.45 1542.06,801.11 1536.53,799.24 1531.99,802.7 	"/>
	<polygon class="st24" points="1517.88,838.21 1523.66,837.12 1525.54,831.99 1521.63,827.94 1515.86,829.03 1513.98,834.17 	"/>
	<polygon class="st24" points="1588.48,812.44 1594.26,811.35 1596.13,806.21 1592.23,802.17 1586.45,803.26 1584.58,808.4 	"/>
	<polygon class="st24" points="1617.1,844.25 1622.88,843.16 1624.76,838.02 1620.85,833.98 1615.07,835.07 1613.2,840.2 	"/>
	<polygon class="st24" points="1586.4,844.8 1592.18,843.71 1594.05,838.58 1590.15,834.53 1584.37,835.62 1582.5,840.76 	"/>
	<polygon class="st24" points="1554.16,852.44 1557.85,856.65 1563.68,855.8 1565.81,850.75 1562.12,846.55 1556.29,847.39 	"/>
	<polygon class="st24" points="1510.52,881.41 1514.21,885.62 1520.04,884.78 1522.17,879.73 1518.48,875.52 1512.65,876.36 	"/>
	<polygon class="st24" points="1599.16,877.97 1602.85,882.18 1608.68,881.34 1610.81,876.29 1607.12,872.08 1601.29,872.92 	"/>
	<polygon class="st24" points="1550.15,898.75 1553.84,902.96 1559.67,902.12 1561.8,897.07 1558.11,892.86 1552.29,893.7 	"/>
	<polygon class="st24" points="1521.22,935.64 1524.91,939.85 1530.74,939.01 1532.87,933.96 1529.18,929.75 1523.36,930.59 	"/>
	<polygon class="st24" points="1580.65,917.44 1584.34,921.65 1590.17,920.81 1592.31,915.76 1588.61,911.55 1582.79,912.39 	"/>
	<polygon class="st24" points="1559.54,949.14 1563.24,953.35 1569.06,952.5 1571.2,947.45 1567.51,943.25 1561.68,944.09 	"/>
	<polygon class="st24" points="1655.99,774.51 1661.77,773.42 1663.65,768.29 1659.74,764.24 1653.97,765.33 1652.09,770.47 	"/>
	<polygon class="st24" points="1650.92,814.53 1656.69,813.44 1658.57,808.31 1654.67,804.26 1648.89,805.35 1647.01,810.49 	"/>
	<polygon class="st24" points="1685.06,796.09 1690.84,795 1692.71,789.87 1688.81,785.82 1683.03,786.91 1681.16,792.05 	"/>
	
		<ellipse transform="matrix(1 -6.602411e-03 6.602411e-03 1 -3.0557 10.2589)" class="st25" cx="1552.27" cy="467.94" rx="80.67" ry="99.82"/>
	
		<ellipse transform="matrix(0.9995 -0.0322 0.0322 0.9995 -11.0344 50.2206)" class="st0" cx="1551.34" cy="367.18" rx="3.15" ry="3.05"/>
	
		<ellipse transform="matrix(0.9995 -0.0322 0.0322 0.9995 -17.5018 50.3845)" class="st0" cx="1553.18" cy="567.75" rx="3.15" ry="3.05"/>
	
		<ellipse transform="matrix(0.9995 -0.0322 0.0322 0.9995 -14.2138 52.904)" class="st0" cx="1632.93" cy="467.08" rx="3.15" ry="3.05"/>
	
		<ellipse transform="matrix(0.9995 -0.0322 0.0322 0.9995 -14.3529 47.7019)" class="st0" cx="1471.6" cy="468.79" rx="3.15" ry="3.05"/>
	
		<ellipse transform="matrix(0.9995 -0.0322 0.0322 0.9995 -12.3594 48.1933)" class="st0" cx="1487.83" cy="407.24" rx="3.15" ry="3.05"/>
	
		<ellipse transform="matrix(0.9995 -0.0322 0.0322 0.9995 -12.1518 52.2734)" class="st0" cx="1614.41" cy="402.85" rx="3.15" ry="3.05"/>
	
		<ellipse transform="matrix(0.9995 -0.0322 0.0322 0.9995 -16.4356 52.2803)" class="st0" cx="1612.49" cy="535.65" rx="3.15" ry="3.05"/>
	
		<ellipse transform="matrix(0.9995 -0.0322 0.0322 0.9995 -16.499 48.3998)" class="st0" cx="1492.16" cy="535.67" rx="3.15" ry="3.05"/>
	<path class="st26" d="M1616.61,494.22c1.34,17.8-16.75,46.8-32.76,55.48c-6.41,3.48-21.64,12.83-52.03,3.5
		c-5.32-1.64,15.1,0.74,43.51-14.54C1613.37,518.21,1616.1,487.34,1616.61,494.22z"/>
	<path class="st27" d="M1664.69,129.22l-231.25,4.16c-1.41,0.03-2.57-1.1-2.6-2.51v0c-0.03-1.41,1.1-2.57,2.51-2.6l231.25-4.16
		c1.41-0.03,2.57,1.1,2.6,2.51v0C1667.22,128.03,1666.1,129.19,1664.69,129.22z"/>
	<path class="st27" d="M1695.56,574.94l37.56-404.81c0.13-1.4,1.37-2.44,2.78-2.31l1.73,0.16c1.4,0.13,2.44,1.37,2.31,2.78
		l-37.56,404.81c-0.13,1.4-1.37,2.44-2.78,2.31l-1.73-0.16C1696.46,577.59,1695.43,576.34,1695.56,574.94z"/>
	<path class="st27" d="M1418.08,582.28l-52.11-403.19c-0.18-1.4-1.46-2.39-2.86-2.2l-1.73,0.22c-1.4,0.18-2.39,1.46-2.2,2.86
		l52.11,403.19c0.18,1.4,1.46,2.39,2.86,2.2l1.73-0.22C1417.27,584.96,1418.26,583.68,1418.08,582.28z"/>
	<path class="st27" d="M1382.3,460.51l-93.37,107.51c-0.55,0.63-1.51,0.7-2.14,0.15l0,0c-0.63-0.55-0.7-1.51-0.15-2.14l93.37-107.51
		c0.55-0.63,1.51-0.7,2.14-0.15l0,0C1382.79,458.91,1382.85,459.87,1382.3,460.51z"/>
	<path class="st27" d="M1727.37,459.93l97.18,104.08c0.57,0.61,1.53,0.65,2.15,0.07l0,0c0.61-0.57,0.65-1.53,0.07-2.15
		l-97.18-104.08c-0.57-0.61-1.53-0.65-2.15-0.07l0,0C1726.83,458.35,1726.79,459.32,1727.37,459.93z"/>
</g>
</svg>
